<?xml version="1.0" encoding="UTF-8" standalone="no"?>
<!-- Created with Inkscape (http://www.inkscape.org/) -->

<svg
   width="16.208277mm"
   height="6.0000005mm"
   viewBox="0 0 16.208277 6.0000003"
   version="1.1"
   id="svg1"
   inkscape:version="1.4.3 (0d15f75042, 2025-12-25)"
   sodipodi:docname="qr2g.it.svg"
   xml:space="preserve"
   inkscape:export-filename="/home/karol/Downloads/ScheduleKeeperLogo.png"
   inkscape:export-xdpi="256"
   inkscape:export-ydpi="256"
   xmlns:inkscape="http://www.inkscape.org/namespaces/inkscape"
   xmlns:sodipodi="http://sodipodi.sourceforge.net/DTD/sodipodi-0.dtd"
   xmlns="http://www.w3.org/2000/svg"
   xmlns:svg="http://www.w3.org/2000/svg">
  <sodipodi:namedview
   id="namedview1"
   pagecolor="#505050"
   bordercolor="#ffffff"
   borderopacity="1"
   inkscape:showpageshadow="0"
   inkscape:pageopacity="0"
   inkscape:pagecheckerboard="1"
   inkscape:deskcolor="#505050"
   inkscape:document-units="mm"
   inkscape:zoom="16"
   inkscape:cx="28.40625"
   inkscape:cy="12.5"
   inkscape:window-width="1920"
   inkscape:window-height="1044"
   inkscape:window-x="0"
   inkscape:window-y="0"
   inkscape:window-maximized="1"
   inkscape:current-layer="layer1" />
  <defs
   id="defs1"><style
     id="style1">
      @import url('https://fonts.googleapis.com/css2?family=Comfortaa:wght@700=swap');
      .label {
        font-family: 'Comfortaa', sans-serif;
        font-size: 184px;
        font-weight: 700;
        fill: #ffffff;
      }
    </style><style
     id="style1-6">
      @import url('https://fonts.googleapis.com/css2?family=Comfortaa:wght@700=swap');
      .label {
        font-family: 'Comfortaa', sans-serif;
        font-size: 184px;
        font-weight: 700;
        fill: #ffffff;
      }
    </style></defs>
  <g
   inkscape:label="Layer 1"
   inkscape:groupmode="layer"
   id="layer1"
   transform="translate(7.7653253e-6,-2.1410552)"
   style="display:inline">
    
    
    
  <g
   id="g44"
   transform="matrix(0.03134875,0,0,0.03134875,-12.913521,13.609648)"><path
     style="fill:#ffffff"
     d="m 871.53749,-309.8027 v -5.02708 h 6.35 6.35 v 5.02708 5.02709 h -6.35 -6.35 z"
     id="path44" /><path
     style="fill:#ffffff"
     d="m 907.72717,-248.43072 c -2.90963,-0.71537 -5.07919,-1.89896 -6.95018,-3.79162 -1.93169,-1.95406 -3.1047,-4.09551 -3.87375,-7.07195 -0.54145,-2.09556 -0.58072,-2.95565 -0.69032,-15.12039 l -0.1162,-12.89843 h -2.75462 -2.75461 v -6.21771 -6.21771 h 2.77407 2.77406 l 0.0702,-7.60677 0.0702,-7.60677 6.28386,-0.0709 6.28385,-0.0709 v 7.67452 7.67452 l 9.98802,0.0693 9.98802,0.0693 0.071,6.15156 0.071,6.15156 h -10.07666 -10.07666 l 0.0838,11.44323 c 0.0774,10.57898 0.12114,11.51317 0.57869,12.36927 0.6994,1.30864 1.2051,1.82691 2.41549,2.47555 1.01456,0.5437 1.38663,0.56716 8.99583,0.56716 h 7.9375 l 0.0709,6.28386 0.0709,6.28385 -9.59593,-0.0192 c -8.48872,-0.017 -9.83162,-0.0771 -11.63855,-0.52136 z"
     id="path43" /><path
     style="fill:#ffffff"
     d="m 871.53749,-273.15791 v -25.2677 h 6.35 6.35 v 25.2677 25.26771 h -6.35 -6.35 z"
     id="path42" /><path
     style="fill:#ffffff"
     d="m 719.19819,-259.59801 0.0995,-11.70781 0.72992,-2.38125 c 1.03186,-3.36626 2.2921,-5.48579 4.64092,-7.80527 2.15565,-2.12872 4.04715,-3.2755 7.03662,-4.26615 1.83465,-0.60797 2.00402,-0.61506 17.99167,-0.75346 15.97047,-0.13824 16.15093,-0.14578 17.22296,-0.71943 1.35548,-0.72532 2.58842,-2.11024 3.0558,-3.43248 0.44789,-1.26709 0.44675,-5.68563 -0.002,-7.01326 -0.49783,-1.47349 -1.70948,-2.98198 -2.84985,-3.54803 -0.97512,-0.48402 -1.99383,-0.51394 -21.79273,-0.64005 l -20.76979,-0.13229 -0.0708,-6.54844 -0.0708,-6.54843 21.7666,0.005 c 24.3273,0.005 23.851,-0.0265 27.58743,1.83307 2.69477,1.34116 4.27702,2.71859 5.88577,5.12387 2.44455,3.65491 3.46191,8.54548 3.14764,15.13117 -0.19268,4.03769 -0.62041,6.22742 -1.73849,8.89993 -1.5513,3.70801 -4.7332,7.06898 -8.12768,8.58507 -3.4169,1.52611 -3.18352,1.50689 -20.33391,1.67447 -15.6116,0.15254 -15.89256,0.16459 -16.93333,0.7262 -1.42251,0.76759 -2.36463,1.80679 -3.08027,3.39766 -0.526,1.16931 -0.59677,1.7684 -0.6095,5.15938 l -0.0144,3.83646 25.06927,0.0675 25.06928,0.0675 v 6.34865 6.34866 h -31.50453 -31.50484 z"
     id="path41" /><path
     style="fill:#ffffff"
     d="m 672.63322,-266.0803 c 0.0902,-17.77728 0.10553,-18.23814 0.67451,-20.30677 0.966,-3.51203 2.26659,-5.80109 4.67618,-8.23014 1.64326,-1.65653 2.57924,-2.35806 4.11192,-3.08192 4.0756,-1.92484 3.99437,-1.91711 20.15227,-1.91711 7.95505,0 14.53955,0.0758 14.63222,0.16834 0.0927,0.0926 -0.64363,2.89055 -1.63622,6.2177 l -1.80472,6.04938 -11.10771,0.14718 c -7.59264,0.10061 -11.41104,0.24812 -12.06622,0.46615 -1.26793,0.42195 -3.28506,2.22427 -4.0135,3.58608 -0.58286,1.08966 -0.58442,1.13258 -0.65786,18.09173 l -0.0736,16.99948 h -6.48979 -6.48978 z"
     id="path40" /><path
     style="fill:#ffffff"
     d="m 855.91019,-248.35322 c -4.76563,-2.41689 -4.77379,-9.01163 -0.0142,-11.49806 3.19378,-1.66846 7.1324,-0.4216 8.82976,2.79524 0.80915,1.53351 0.80915,4.36276 0,5.89627 -1.69332,3.20917 -5.5811,4.44691 -8.81555,2.80655 z"
     id="path39" /><path
     style="fill:#ffffff"
     d="m 660.00312,-229.18926 c -3.20146,-1.19993 -5.96966,-2.27414 -6.15156,-2.38713 -0.25284,-0.15707 -0.33073,-2.10225 -0.33073,-8.25963 v -8.05418 l -15.54427,-0.005 c -17.2514,-0.005 -17.65783,-0.0379 -21.17097,-1.70623 -3.85546,-1.83095 -6.53624,-5.37787 -7.6484,-10.11952 -0.43106,-1.83784 -0.48324,-3.37427 -0.48324,-14.23111 0,-10.72812 0.0549,-12.38448 0.46301,-13.97312 1.32786,-5.16882 4.41096,-8.82347 8.86738,-10.51125 3.33019,-1.26124 4.82903,-1.3513 20.77666,-1.24835 16.33511,0.10545 16.03512,0.078 19.7519,1.80815 4.29379,1.99877 6.76968,5.57527 7.58723,10.95999 0.50887,3.35162 0.5415,59.9333 0.0345,59.91839 -0.1819,-0.005 -2.9501,-0.99149 -6.15156,-2.19141 z m -6.47316,-32.12854 c 0.005,-0.40018 0.008,-5.45762 0.006,-11.23876 -0.003,-11.62167 -0.002,-11.61211 -1.67966,-13.08498 -1.54033,-1.35243 -2.5543,-1.44211 -15.30789,-1.35397 -11.3112,0.0782 -11.4858,0.0875 -12.58342,0.67414 -0.72634,0.38818 -1.36984,1.03168 -1.85209,1.85208 l -0.73902,1.25722 v 9.39271 c 0,9.0969 0.0179,9.42604 0.56716,10.45104 0.68449,1.27726 1.26877,1.83232 2.48342,2.35916 0.77851,0.33767 3.06126,0.39983 15.00724,0.40861 l 14.08906,0.0104 z"
     id="path34" /><path
     style="fill:#ffffff"
     d="m 795.26295,-225.29876 c -0.10452,-0.10453 -0.19004,-2.90864 -0.19004,-6.23137 v -6.04132 l 15.54427,-0.003 c 16.79537,-0.003 17.29453,-0.0401 19.38749,-1.42514 2.12557,-1.40663 3.16824,-3.68246 3.16824,-6.91534 v -1.97513 l -15.54427,-0.005 c -17.45747,-0.005 -17.72345,-0.028 -21.39705,-1.83859 -3.72424,-1.83553 -6.1854,-5.04458 -7.41343,-9.66619 -0.44617,-1.67913 -0.49213,-3.00098 -0.49213,-14.15521 0,-10.96681 0.0523,-12.52594 0.48128,-14.35459 1.33333,-5.68335 4.75215,-9.29384 10.49893,-11.08751 l 1.98438,-0.61935 h 15.875 c 17.73935,0 17.66883,-0.006 21.34092,1.90248 3.46907,1.80324 5.41217,4.16681 6.72925,8.18538 l 0.76941,2.34755 v 23.2833 c 0,26.19514 0.11936,24.50784 -2.04947,28.97188 -0.86377,1.77789 -1.53944,2.69491 -3.22575,4.37803 -2.42389,2.4193 -4.71721,3.76018 -8.00674,4.68148 -2.01082,0.56318 -2.51634,0.58034 -19.66706,0.66771 -9.68175,0.0493 -17.6887,0.004 -17.79323,-0.10037 z m 37.85431,-46.88673 -0.0766,-11.59529 -0.65692,-0.95832 c -0.3613,-0.52707 -1.13521,-1.23255 -1.71979,-1.56773 l -1.06292,-0.60941 H 817.16562 804.7302 l -1.17637,0.66146 c -0.84752,0.47655 -1.36525,1.02966 -1.85208,1.97861 l -0.67572,1.31716 0.002,9.00159 c 0.002,9.48496 0.0756,10.17219 1.24915,11.66414 0.3077,0.39118 1.04506,0.93178 1.63858,1.20135 1.0067,0.45721 2.02557,0.4905 15.17869,0.49592 l 14.09956,0.006 z"
     id="path32" /></g><g
   id="g96"
   transform="matrix(0.16647592,0,0,0.16647592,8.2044062,4.0633099)"><path
     style="fill:#ffffff;stroke-width:0.213281"
     d="m -30.491517,22.449165 c -2.85683,-0.328551 -5.06123,-1.194855 -6.98515,-2.745089 -1.18813,-0.957358 -1.88919,-1.899208 -2.83813,-3.812926 -0.33722,-0.680071 -0.80833,-1.52962 -1.04692,-1.887887 -0.92261,-1.385393 -2.07486,-2.275755 -3.37343,-2.606705 -0.53624,-0.136662 -1.45462,-0.151423 -2.01613,-0.03241 -0.79574,0.168664 -1.64557,0.621389 -2.23535,1.190836 -0.27021,0.260885 -0.29626,0.274181 -0.29626,0.151174 0,-0.07418 0.0499,-0.330172 0.11081,-0.568878 0.5056,-1.980255 2.01156,-3.6340658 4.09434,-4.4963138 1.20156,-0.497432 2.09177,-0.670006 3.44118,-0.667102 1.67812,0.0036 2.8752,0.306263 4.28873,1.084282 0.48431,0.266571 1.36201,0.905699 1.63293,1.189081 0.0912,0.09535 0.18502,0.173363 0.20857,0.173363 0.0808,0 -0.12437,-0.592754 -0.4004,-1.156827 -0.16704,-0.341358 -0.43431,-0.759384 -0.67651,-1.058073 -0.2202,-0.27157 -0.38767,-0.493766 -0.37216,-0.493766 0.0837,0 0.79575,0.296714 1.18762,0.494892 1.24176,0.627988 2.25602,1.603302 3.2998,3.1730938 0.79558,1.196508 1.42862,1.814026 2.28683,2.230758 0.66824,0.324489 1.22795,0.474765 1.92283,0.516267 0.51694,0.03087 1.4273,-0.04863 1.57055,-0.137159 0.0287,-0.01772 -0.16156,-0.07552 -0.42273,-0.128452 -0.6057,-0.122754 -1.16334,-0.344483 -1.64578,-0.654395 -0.368,-0.236398 -0.47035,-0.359826 -0.29838,-0.359826 0.23933,0 0.73779,-0.259725 1.04588,-0.54496 0.52546,-0.486483 0.76352,-1.108787 0.69203,-1.8090328 l -0.03,-0.294281 -0.27513,-0.09138 c -0.36549,-0.121397 -0.79811,-0.453853 -1.11284,-0.855184 -0.72576,-0.925464 -1.46208,-1.442075 -2.99823,-2.103599 -0.45004,-0.193802 -0.996,-0.45525 -1.21326,-0.580998 -0.76118,-0.44057 -1.50297,-1.074505 -2.02866,-1.733701 -0.3468,-0.434868 -0.79897,-1.095135 -0.72918,-1.064734 0.0271,0.01177 0.18711,0.09387 0.3557,0.18243 0.16859,0.08856 0.5495,0.246917 0.84646,0.351909 l 0.53993,0.190895 -0.19595,-0.154725 c -0.93836,-0.74095 -1.70474,-1.598102 -2.20289,-2.4638 -0.30138,-0.523752 -0.58102,-1.140613 -0.5526,-1.218979 0.009,-0.02585 0.1787,0.05047 0.37627,0.169616 0.46484,0.280315 1.27591,0.545173 1.82059,0.594524 0.71448,0.06473 0.71022,0.07327 0.33383,-0.668804 -0.58671,-1.156752 -0.94242,-2.296202 -1.16566,-3.733963 -0.16019,-1.031662 -0.14677,-3.276855 0.0273,-4.569339 0.0709,-0.52678 0.14112,-0.977393 0.15593,-1.001364 0.0148,-0.02397 0.17385,0.140399 0.35341,0.365263 0.37156,0.465315 1.05894,1.133963 1.55763,1.51519 0.18623,0.142358 0.82474,0.57988 1.41894,0.972274 1.54423,1.019779 2.03764,1.433294 2.77179,2.322961 0.20489,0.248295 0.39027,0.472549 0.41195,0.498344 0.0217,0.02579 0.24245,-0.01723 0.49061,-0.09563 1.29294,-0.408439 2.8007,-0.4283 4.07036,-0.05362 0.26729,0.07888 0.52407,0.154403 0.57062,0.167833 0.0538,0.0155 0.18757,-0.112706 0.3668,-0.351506 0.15519,-0.206757 0.53386,-0.61578 0.8415,-0.908943 0.52764,-0.502806 0.79153,-0.692965 2.45863,-1.771654 1.162,-0.75187 2.18501,-1.655195 2.72318,-2.404575 0.12051,-0.167807 0.1901,-0.224002 0.21661,-0.174905 0.05,0.09253 0.20624,1.291386 0.27793,2.132051 0.11782,1.381506 0.0299,2.820189 -0.25745,4.215219 -0.2107,1.022751 -0.41685,1.608898 -0.93585,2.660906 l -0.45521,0.922702 0.16947,0.234125 c 0.34275,0.473509 1.15097,0.883076 1.74261,0.883076 0.23494,0 0.24921,0.0085 0.21319,0.126968 -0.0467,0.153509 -0.35456,0.671884 -0.69545,1.170933 -0.1378,0.201741 -0.55098,0.664281 -0.91816,1.027867 l -0.66762,0.661068 0.4381,0.333492 c 1.133,0.862482 2.12601,2.32044 2.52364,3.705275 0.90405,3.1485448 -0.80382,6.5683688 -4.29059,8.5914568 -1.07807,0.625514 -1.83623,0.952898 -3.58203,1.546787 -0.63626,0.216442 -1.27852,0.471365 -1.42726,0.566495 -0.45698,0.292284 -0.52016,0.57765 -0.19484,0.880106 0.18378,0.170863 0.94635,0.501393 1.35405,0.586899 0.53826,0.112888 0.37998,0.175108 -0.33858,0.133096 -1.36144,-0.0796 -2.61263,-0.3358 -3.88943,-0.796418 -1.24179,-0.447988 -2.51838,-1.173806 -2.79054,-1.586583 -0.15835,-0.240176 -0.13801,-0.531341 0.0494,-0.70666 0.30399,-0.28442 0.51925,-0.354713 2.11305,-0.690014 2.4253,-0.51023 3.95883,-1.126481 5.46275,-2.195221 0.53976,-0.383575 1.60506,-1.432266 1.94685,-1.916501 0.12415,-0.175886 0.24565,-0.320341 0.27001,-0.321011 0.0244,-6.4e-4 0.29099,0.214354 0.59252,0.47783 0.30153,0.263475 0.56407,0.479323 0.58342,0.47966 0.10349,0.0019 0.84436,-4.6406338 0.75486,-4.7301288 -0.0683,-0.06833 -4.15159,2.0862898 -4.14586,2.1876448 0.001,0.01757 0.25654,0.1843 0.56787,0.37052 0.31133,0.186222 0.5958,0.373749 0.63215,0.416729 0.0533,0.06299 -0.0142,0.150559 -0.34811,0.451445 -1.29116,1.163614 -2.84336,1.933092 -4.61008,2.285368 -0.88961,0.177386 -1.76329,0.291536 -2.846,0.371847 -2.5523,0.189317 -3.84661,0.449078 -4.65598,0.934437 -0.61576,0.369253 -0.9061,0.72701 -1.04829,1.291716 -0.0561,0.222686 -0.0509,0.323112 0.0328,0.63235 0.39102,1.444527 2.71777,3.288568 5.50213,4.360656 0.75298,0.289926 0.74219,0.280313 0.31037,0.276485 -0.21726,-0.0019 -0.58547,-0.0254 -0.81824,-0.05218 z m 4.86499,-13.8638488 c 0.29348,-0.201919 0.49591,-0.490077 0.49591,-0.705917 0,-0.273385 -0.43397,-0.449965 -1.10039,-0.447742 -0.49244,0.0017 -0.84794,0.09486 -1.02073,0.267646 -0.11363,0.113629 -0.12478,0.156853 -0.0764,0.295771 0.0312,0.08948 0.13664,0.259657 0.23433,0.378166 0.38174,0.463116 0.97725,0.549194 1.46724,0.212076 z m -2.51607,-3.777297 c -0.0469,-0.24088 -0.10237,-0.628415 -0.12328,-0.86119 -0.12415,-1.382635 -0.86446,-2.202259 -2.141,-2.370362 -1.00418,-0.132239 -1.22789,-0.173688 -1.39004,-0.257537 -0.0932,-0.04819 -0.19132,-0.07973 -0.21805,-0.07009 -0.0267,0.0096 0.0338,0.195293 0.13443,0.412549 0.13039,0.281407 0.20154,0.546127 0.24737,0.920437 0.14901,1.216859 0.81989,1.911706 2.04674,2.119881 0.57115,0.09691 1.03643,0.303462 1.30118,0.577622 0.17427,0.180461 0.19369,0.188112 0.20998,0.08275 0.01,-0.06385 -0.0204,-0.313182 -0.0673,-0.554059 z m 4.54306,0.08091 c 0.16647,-0.05948 0.55788,-0.09929 1.2058,-0.122653 0.93957,-0.03387 0.96331,-0.0378 1.15318,-0.190454 0.41824,-0.336286 0.42335,-0.353483 0.46036,-1.549852 0.031,-1.000916 0.0445,-1.107825 0.17998,-1.419727 0.0806,-0.185516 0.14145,-0.34235 0.13528,-0.348518 -0.006,-0.0062 -0.16334,0.04055 -0.34927,0.103821 -0.22889,0.07789 -0.58053,0.129214 -1.08895,0.158943 -0.68118,0.03983 -0.78447,0.06043 -1.1125,0.221921 -0.72127,0.35508 -1.12496,1.130004 -1.17928,2.263782 -0.0126,0.262201 -0.038,0.514817 -0.0564,0.561372 -0.0184,0.04655 -0.068,0.266253 -0.11022,0.488217 l -0.0767,0.403568 0.2961,-0.241176 c 0.16286,-0.132648 0.40702,-0.280808 0.54259,-0.329244 z m -9.04377,-6.888098 c -0.0995,-0.485043 -0.16603,-0.896739 -0.14789,-0.914883 0.0181,-0.01815 0.19383,0.09324 0.39041,0.247527 0.35721,0.280343 1.33225,0.913868 1.40651,0.913868 0.11903,0 -0.23988,-1.01129 -0.57321,-1.615125 -0.31937,-0.578573 -0.63548,-0.983444 -1.50968,-1.933616 -0.41728,-0.453544 -0.95148,-1.074191 -1.1871,-1.379217 -0.23562,-0.305024 -0.43783,-0.526309 -0.44935,-0.491742 -0.0353,0.106045 0.0987,1.532996 0.18762,1.998025 0.2728,1.425776 0.6807,2.494887 1.23014,3.224168 0.31522,0.418402 0.7655,0.900824 0.80445,0.861875 0.0159,-0.01593 -0.0524,-0.425839 -0.1519,-0.91088 z m 13.10817,0.517658 c 0.79364,-0.936898 1.2875,-2.025726 1.60368,-3.535708 0.12803,-0.611414 0.25721,-2.209201 0.17861,-2.209201 -0.0177,0 -0.12955,0.133316 -0.24854,0.29626 -0.28246,0.386787 -0.89263,1.091998 -1.40372,1.622378 -0.94975,0.985592 -1.60105,1.942265 -1.90167,2.793311 -0.1459,0.413063 -0.22907,0.761814 -0.18167,0.761814 0.0625,0 0.98501,-0.595263 1.37064,-0.884427 0.22755,-0.170622 0.42858,-0.295368 0.44674,-0.277211 0.0264,0.02645 -0.15878,1.054168 -0.30962,1.71797 -0.0268,0.117913 -0.0176,0.126316 0.0809,0.07364 0.0611,-0.0327 0.22522,-0.194176 0.36469,-0.358824 z"
     id="path31"
     sodipodi:nodetypes="ssssssssssssssssssssssssssscsssssssscsssssssssssssscsssssssssscssssscsssssssssssssscscscssssssssssssscssssssssssssssssssssssssssscssssssssssssssssssssssssss" /><path
     style="fill:#ffffff;stroke-width:0.213281"
     d="m -23.338947,4.1878732 -0.21161,-0.02213 2.1e-4,-0.546793 c 4.3e-4,-0.636679 0.0611,-0.900179 0.26251,-1.139587 0.25168,-0.299099 0.39113,-0.338308 1.20317,-0.338308 h 0.738 l -0.0104,0.761289 c -0.012,0.884567 -0.0705,1.039206 -0.45956,1.215822 -0.18741,0.08507 -0.3538,0.10657 -0.77476,0.100093 -0.29485,-0.0045 -0.63131,-0.01821 -0.7477,-0.03038 z m 1.31201,-1.002857 v -0.423228 h -0.42323 -0.42323 v 0.423228 0.42323 h 0.42323 0.42323 z"
     id="path30" /><path
     style="fill:#ffffff;stroke-width:0.213281"
     d="m -29.696897,4.0264812 c -0.51241,-0.137766 -0.82788,-0.383236 -0.98944,-0.769884 -0.0886,-0.212163 -0.11478,-0.696929 -0.0505,-0.936955 0.0313,-0.116906 0.0583,-0.127615 0.23906,-0.09488 0.5513,0.09983 1.08077,0.468614 1.29839,0.90434 0.12214,0.244578 0.24687,0.896409 0.18363,0.959655 -0.0503,0.05025 -0.37205,0.02082 -0.68113,-0.06228 z"
     id="path1" /></g></g>
</svg>
