<?xml version="1.0" encoding="UTF-8" standalone="no"?>
<!-- Created with Inkscape (http://www.inkscape.org/) -->

<svg
   width="16.208277mm"
   height="6.0000005mm"
   viewBox="0 0 16.208277 6.0000003"
   version="1.1"
   id="svg1"
   inkscape:version="1.4.3 (0d15f75042, 2025-12-25)"
   sodipodi:docname="schedulekeeper.svg"
   xml:space="preserve"
   inkscape:export-filename="/home/karol/Downloads/ScheduleKeeperLogo.png"
   inkscape:export-xdpi="256"
   inkscape:export-ydpi="256"
   xmlns:inkscape="http://www.inkscape.org/namespaces/inkscape"
   xmlns:sodipodi="http://sodipodi.sourceforge.net/DTD/sodipodi-0.dtd"
   xmlns="http://www.w3.org/2000/svg"
   xmlns:svg="http://www.w3.org/2000/svg">
  <sodipodi:namedview
   id="namedview1"
   pagecolor="#505050"
   bordercolor="#ffffff"
   borderopacity="1"
   inkscape:showpageshadow="0"
   inkscape:pageopacity="0"
   inkscape:pagecheckerboard="1"
   inkscape:deskcolor="#505050"
   inkscape:document-units="mm"
   inkscape:zoom="8"
   inkscape:cx="31.6875"
   inkscape:cy="2"
   inkscape:window-width="1920"
   inkscape:window-height="1044"
   inkscape:window-x="0"
   inkscape:window-y="0"
   inkscape:window-maximized="1"
   inkscape:current-layer="layer1" />
  <defs
   id="defs1"><style
     id="style1">
      @import url('https://fonts.googleapis.com/css2?family=Comfortaa:wght@700=swap');
      .label {
        font-family: 'Comfortaa', sans-serif;
        font-size: 184px;
        font-weight: 700;
        fill: #ffffff;
      }
    </style><style
     id="style1-6">
      @import url('https://fonts.googleapis.com/css2?family=Comfortaa:wght@700=swap');
      .label {
        font-family: 'Comfortaa', sans-serif;
        font-size: 184px;
        font-weight: 700;
        fill: #ffffff;
      }
    </style></defs>
  <g
   inkscape:label="Layer 1"
   inkscape:groupmode="layer"
   id="layer1"
   transform="translate(7.7653253e-6,-2.1410552)"
   style="display:inline">
    
    
    
  <path
   style="opacity:1;fill:#ffffff;stroke-width:0.0284397"
   d="M 2.0011329,6.8539898 C 1.8611925,6.8398726 1.7298192,6.8033176 1.6492696,6.7560827 1.625519,6.7421553 1.5803617,6.7053643 1.5489199,6.6743249 1.5026701,6.6286674 1.4850523,6.604238 1.4566679,6.5464048 1.4038309,6.4387508 1.3895718,6.3758466 1.3892926,6.2491799 1.3890456,6.1362428 1.396161,6.0849335 1.4268697,5.9782913 1.4728527,5.8186058 1.5754266,5.6230945 1.6788858,5.4979348 c 0.01997,-0.024159 0.036309,-0.046852 0.036309,-0.05043 0,-0.00358 -0.041668,-0.026437 -0.092596,-0.050799 C 1.3172594,5.2506458 1.1379203,5.0302077 1.0623398,4.7080533 1.044692,4.6328299 1.0425393,4.6081966 1.0421601,4.4771167 1.0417164,4.3202436 1.0521459,4.2485811 1.0931665,4.1269748 L 1.11055,4.0754431 1.0744162,3.9858326 C 0.9780601,3.7468728 0.91049494,3.472973 0.88675707,3.2250864 0.87499202,3.1022335 0.8817306,2.8708008 0.89894097,2.806637 0.93692302,2.6650287 1.0170367,2.5886629 1.1277889,2.5884948 c 0.071376,-1.143e-4 0.1363005,0.01834 0.2375079,0.067489 0.1633013,0.079303 0.3415295,0.2122231 0.5279596,0.3937452 L 1.999951,3.1536145 2.0626204,3.1277599 C 2.2807298,3.0377774 2.4803503,2.9970005 2.739321,2.9895285 l 0.1550246,-0.00447 0.027607,-0.055791 C 2.9568079,2.8588224 3.041506,2.7189244 3.1055305,2.626045 3.2450687,2.4236177 3.4161731,2.2456423 3.5375032,2.1767257 c 0.1724929,-0.097978 0.304632,0.00541 0.4039103,0.3160373 0.083746,0.2620233 0.1141406,0.6179076 0.079978,0.9364409 -0.00462,0.043116 -0.00442,0.043674 0.034024,0.095887 0.16849,0.2288043 0.2392693,0.5454345 0.1807025,0.8083658 -0.047313,0.2124065 -0.1537579,0.3911905 -0.3349364,0.5625558 -0.051765,0.048961 -0.09412,0.094269 -0.094122,0.1006836 -4.9e-6,0.017411 0.015595,0.029723 0.037662,0.029723 0.012609,0 0.03691,-0.014317 0.068098,-0.04012 0.2470735,-0.2044138 0.3857125,-0.4501006 0.4210793,-0.7462092 0.00891,-0.074566 0.00534,-0.2038768 -0.00754,-0.2738841 -0.00557,-0.030263 -0.00369,-0.037023 0.022008,-0.079009 0.081868,-0.133774 0.2028366,-0.3480982 0.3656783,-0.6478899 0.126635,-0.2331379 0.2233534,-0.3669157 0.3320527,-0.4592897 0.09795,-0.083239 0.2001441,-0.1408455 0.3088127,-0.174076 0.058986,-0.018038 0.078477,-0.020274 0.1790616,-0.020546 0.1031546,-2.836e-4 0.1180516,0.00144 0.1730678,0.019991 0.1786949,0.060249 0.2855998,0.2095336 0.2842186,0.3968923 -6.358e-4,0.086601 -0.01869,0.149921 -0.061714,0.2164877 -0.034935,0.054051 -0.091583,0.091838 -0.1378521,0.091954 l -0.028218,5.49e-5 -1.19e-5,-0.035742 c -1.28e-5,-0.039807 -0.020466,-0.088415 -0.037203,-0.088415 -0.00795,0 -0.013477,0.017992 -0.020516,0.06676 -0.011003,0.076218 -0.035019,0.1251798 -0.072664,0.1481435 -0.049526,0.030212 -0.097486,0.026033 -0.1328164,-0.011574 -0.0113,-0.012028 -0.019118,-0.034998 -0.025198,-0.074034 -0.00485,-0.031128 -0.011273,-0.059045 -0.014277,-0.062038 -0.010015,-0.00998 -0.027436,0.012484 -0.0402,0.051835 -0.0184,0.056726 -0.037578,0.084558 -0.068319,0.099146 -0.050597,0.02401 -0.1019662,0.00321 -0.1361515,-0.055119 -0.016804,-0.028674 -0.020455,-0.045093 -0.022766,-0.102397 -0.00151,-0.037536 -0.00417,-0.072626 -0.0059,-0.077977 -0.00523,-0.016162 -0.031683,0.00306 -0.047869,0.034787 -0.0211,0.041358 -0.025723,0.077164 -0.016008,0.1239618 0.011331,0.054581 0.044917,0.1038407 0.090932,0.1333685 0.020511,0.013162 0.037294,0.024921 0.037294,0.02613 0,0.00819 -0.1472396,0.35388 -0.2062148,0.4841492 C 4.8078095,4.496975 4.6292015,4.782295 4.2559929,5.233098 4.1456362,5.3663993 4.0646673,5.4757095 4.0385514,5.5266505 c -0.053256,0.103879 -0.070791,0.2144082 -0.059695,0.3762834 0.00425,0.062026 0.00712,0.1130464 0.00638,0.113378 -7.45e-4,3.385e-4 -0.3264155,-0.00163 -0.723719,-0.00436 -0.5915393,-0.00407 -0.7580074,-0.00751 -0.9191402,-0.018984 -0.2099363,-0.014954 -0.220849,-0.013942 -0.220849,0.020479 0,0.02205 0.037138,0.033616 0.1505689,0.04689 0.2181365,0.025527 0.3198219,0.02887 1.0420931,0.034256 0.8270377,0.00617 0.7904303,0.00358 0.840876,0.059418 0.061278,0.067828 0.034429,0.1607364 -0.058309,0.2017724 -0.043916,0.019433 -0.396274,0.025077 -0.431404,0.00691 -0.028185,-0.014575 -0.053088,-0.015387 -0.058264,-0.0019 -0.00212,0.00552 0.00772,0.027236 0.021856,0.04825 0.045453,0.067542 0.042973,0.1460728 -0.00616,0.1952104 -0.02692,0.02692 -0.051238,0.031267 -0.074882,0.013384 -0.00803,-0.00608 -0.022819,-0.011048 -0.032857,-0.011048 -0.015475,0 -0.017448,0.00258 -0.012974,0.016931 0.022017,0.070635 0.0221,0.078271 0.00131,0.120772 -0.032761,0.066942 -0.096866,0.1021655 -0.187027,0.1027542 C 3.2280705,6.8476232 3.1580444,6.809617 3.103105,6.7313028 L 3.0876602,6.7092863 2.9789475,6.7405741 C 2.626669,6.8419614 2.2802631,6.8821355 2.0011342,6.853977 Z M 1.616567,5.1787937 c 0.033385,-0.023797 0.090397,-0.060458 0.1266935,-0.081468 0.067809,-0.039253 0.082393,-0.058576 0.058914,-0.078062 -0.018775,-0.015582 -0.057177,-0.00336 -0.1328926,0.042281 -0.084421,0.050893 -0.1439525,0.096767 -0.1515746,0.1167984 -0.00733,0.019262 0.00611,0.043717 0.02403,0.043717 0.00777,0 0.041445,-0.01947 0.07483,-0.043266 z M 1.4603087,5.0217799 c 0.082454,-0.041036 0.1953942,-0.085657 0.2168057,-0.085657 0.022331,0 0.041439,-0.032337 0.030826,-0.052168 -0.011343,-0.021195 -0.034162,-0.019842 -0.1134629,0.00673 -0.068506,0.022952 -0.2115019,0.09078 -0.2348234,0.1113863 -0.023018,0.020338 -0.011821,0.05445 0.017873,0.05445 0.00714,0 0.044392,-0.015632 0.082782,-0.034738 z M 2.6087258,4.8593803 c 0.050374,-0.01865 0.1146783,-0.077111 0.137355,-0.1248746 l 0.017449,-0.036753 0.042065,0.028757 c 0.023944,0.016369 0.062222,0.033838 0.088856,0.04055 0.1349913,0.034021 0.2907208,-0.06653 0.3085162,-0.1992028 0.00329,-0.024543 7.45e-4,-0.0326 -0.01544,-0.048782 -0.010662,-0.010661 -0.025556,-0.019384 -0.033101,-0.019384 -0.022668,0 -0.044874,0.02053 -0.050017,0.046243 C 3.085146,4.6422509 2.979624,4.698446 2.8928083,4.658621 2.8562973,4.641873 2.8246883,4.611033 2.8055183,4.573455 c -0.018909,-0.037064 -0.018077,-0.048292 0.00566,-0.07644 0.041462,-0.049168 0.052869,-0.1114867 0.025021,-0.1366891 -0.019902,-0.018012 -0.076303,-0.016762 -0.1619887,0.00359 -0.101204,0.024036 -0.1237742,0.040653 -0.1237742,0.091127 0,0.033264 0.03921,0.069086 0.091488,0.083585 l 0.040193,0.011147 0.00226,0.038523 c 0.00418,0.071179 -0.047077,0.1505714 -0.1157201,0.1792526 -0.028913,0.012081 -0.091191,0.013911 -0.1186107,0.00349 -0.010228,-0.00389 -0.030652,-0.019126 -0.045387,-0.033861 -0.04349,-0.043491 -0.095015,-0.034072 -0.095015,0.017368 0,0.022973 0.00554,0.034137 0.028217,0.056908 0.069043,0.069312 0.1665218,0.086562 0.2708635,0.047932 z M 1.3239111,4.8193521 c 0.061738,-0.016777 0.1712637,-0.033659 0.2185924,-0.033693 0.044649,-2.84e-5 0.059821,-0.00863 0.059821,-0.033891 0,-0.025155 -0.015134,-0.033861 -0.058855,-0.033861 -0.052133,0 -0.1791807,0.018851 -0.2412588,0.035797 -0.053402,0.014578 -0.071357,0.032399 -0.060598,0.060143 0.00781,0.020128 0.024403,0.021239 0.082298,0.00551 z M 1.9800538,4.649681 C 2.0896188,4.6127711 2.1675728,4.5234523 2.2004776,4.3971213 2.266271,4.144524 2.0376001,3.8985957 1.7955556,3.9616403 c -0.062312,0.01623 -0.1001723,0.037721 -0.1497291,0.08499 -0.053086,0.050635 -0.09076,0.1218986 -0.1041996,0.1970997 -0.023607,0.1320958 0.04137,0.2890995 0.1511228,0.3651582 0.078375,0.054314 0.1971193,0.071174 0.2873041,0.040793 z M 4.002355,4.654361 C 4.016155,4.6377331 4.008635,4.6099641 3.98765,4.6000641 3.9546737,4.5845048 3.8509372,4.5661779 3.771638,4.5619017 l -0.076804,-0.00414 -0.00904,0.019845 c -0.015785,0.034643 0.00412,0.04689 0.085671,0.052717 0.0382,0.00273 0.096544,0.011292 0.1296526,0.019028 0.07604,0.017768 0.090075,0.018463 0.1012395,0.00501 z M 3.863492,4.4320447 c 0.02897,-0.00391 0.091782,-0.00722 0.1395827,-0.00735 0.057261,-1.692e-4 0.089991,-0.00333 0.09594,-0.00928 0.01463,-0.014631 0.010408,-0.034869 -0.010076,-0.04829 -0.016569,-0.010856 -0.034805,-0.011928 -0.1373254,-0.00808 -0.12666,0.00476 -0.205674,0.017942 -0.2253251,0.037594 -0.010202,0.010202 -0.0107,0.015482 -0.00304,0.032288 0.010117,0.022205 3.933e-4,0.021989 0.1402462,0.00312 z M 3.4731876,4.3078933 C 3.6251125,4.2621704 3.7260408,4.0778099 3.6916009,3.9089284 3.6549876,3.7293871 3.5213312,3.6187099 3.3531036,3.6286274 c -0.083151,0.0049 -0.1343658,0.025787 -0.1927112,0.078586 -0.053676,0.048574 -0.073975,0.077923 -0.097427,0.1408592 -0.049478,0.1327838 -0.012954,0.2884817 0.09004,0.3838359 0.091718,0.084914 0.2028653,0.1112915 0.3201822,0.075985 z M 4.0440845,4.1791154 c 0.039948,-0.00748 0.073609,-0.018214 0.082075,-0.026161 0.013729,-0.012887 0.013786,-0.01434 0.0013,-0.033398 -0.012189,-0.018604 -0.015636,-0.019596 -0.051976,-0.014965 -0.098543,0.012558 -0.2486589,0.058129 -0.2775168,0.084245 -0.00741,0.00671 -0.013481,0.019972 -0.013481,0.029472 0,0.032333 0.019165,0.032725 0.1081413,0.00221 0.046056,-0.015794 0.1142132,-0.034426 0.1514603,-0.041404 z M 1.2599464,3.7783735 C 1.3705092,3.5986471 1.546421,3.420684 1.7360932,3.2966741 c 0.03403,-0.022249 0.061873,-0.042725 0.061873,-0.045502 0,-0.010915 -0.1794453,-0.1850338 -0.2439325,-0.2366909 -0.1750628,-0.1402347 -0.3414456,-0.223084 -0.412297,-0.2053015 -0.03572,0.00897 -0.064372,0.040384 -0.078576,0.086163 -0.016264,0.052418 -0.018007,0.2363482 -0.0033,0.347726 0.01557,0.1178734 0.058706,0.3209559 0.090364,0.4254276 0.030904,0.1019821 0.060789,0.1868549 0.064335,0.1827097 0.00113,-0.00132 0.021552,-0.034095 0.045382,-0.072833 z M 3.8605916,3.0700011 C 3.8445617,2.7944074 3.8021332,2.5899208 3.733695,2.4584137 3.6710196,2.3379804 3.6144574,2.3408773 3.4774486,2.4715378 3.3939975,2.5511224 3.3298171,2.6290433 3.2541218,2.7426774 3.1969558,2.8284947 3.0958214,3.0014345 3.1007097,3.005012 c 0.00153,0.00112 0.041112,0.00798 0.087952,0.015237 0.2337861,0.036223 0.4363944,0.1194891 0.6035353,0.2480348 l 0.06377,0.049045 0.00658,-0.050298 c 0.00406,-0.031065 0.00331,-0.1064045 -0.00195,-0.1970294 z"
   id="path36" /><path
   style="fill:#ffffff;stroke-width:0.0284397"
   d="M 3.3254773,4.1498504 C 3.2205772,4.1162474 3.1681106,3.9941774 3.2154911,3.893954 3.2866171,3.7435026 3.4841694,3.7625232 3.5329221,3.924517 3.5465451,3.969781 3.5464241,3.98361 3.5319799,4.0322436 3.5045209,4.1247086 3.411812,4.1775077 3.3254758,4.1498509 Z"
   id="path35" /><path
   style="fill:#ffffff;stroke-width:0.0284397"
   d="M 1.837363,4.4923242 C 1.7054031,4.4610245 1.6552456,4.2750721 1.7513808,4.173559 c 0.066084,-0.069781 0.1784508,-0.069781 0.2432808,0 0.076047,0.081854 0.074538,0.1926824 -0.00369,0.2707526 -0.050179,0.050082 -0.091043,0.062854 -0.1536148,0.048013 z"
   id="path34" /><g
   id="g36"
   transform="translate(0,0.03)"><path
     style="fill:#ffffff;stroke-width:0.0284397"
     d="M 5.4888242,7.2720888 C 5.4557152,7.2681234 5.3948295,7.2562221 5.3535225,7.2456463 5.1481918,7.1930757 4.9944026,7.1056771 4.845205,6.9567709 4.567517,6.6796247 4.4560781,6.3064544 4.5377481,5.9272042 4.6054997,5.6125893 4.8304763,5.3283826 5.1314012,5.1772598 c 0.083748,-0.042058 0.159579,-0.069142 0.2520773,-0.090032 0.074712,-0.016873 0.075263,-0.017163 0.077605,-0.040692 l 0.00236,-0.023697 h -0.047911 c -0.082763,0 -0.1521787,-0.046819 -0.1890913,-0.1275375 -0.011635,-0.025442 -0.015707,-0.049744 -0.015844,-0.094551 -1.829e-4,-0.053398 0.0027,-0.06618 0.025021,-0.111558 0.020243,-0.041158 0.033963,-0.057695 0.069667,-0.08398 0.024453,-0.018001 0.055666,-0.036428 0.069363,-0.040948 l 0.024902,-0.00822 -0.018301,-0.054423 C 5.3653583,4.4543632 5.3633921,4.4372962 5.3663138,4.3719533 5.371247,4.2616421 5.4026826,4.1997805 5.4718956,4.1641822 l 0.028218,-0.014513 v -0.05613 -0.056129 L 5.4718956,4.0228972 C 5.4161969,3.9942499 5.38034,3.9392208 5.3643233,3.8578076 5.3534822,3.8027034 5.3584575,3.7253797 5.3761198,3.674456 5.3910146,3.6315155 5.441554,3.5722658 5.4753231,3.5581562 l 0.02479,-0.010358 v -0.055663 c 0.029851,0.00929 0.062459,0.00893 0.097822,-0.00108 v 0.055611 l 0.034066,0.016491 c 0.1435948,0.069513 0.144107,0.3831725 7.455e-4,0.4592238 L 5.5979326,4.04085 v 0.054628 0.054628 l 0.030271,0.012112 c 0.092885,0.037165 0.1409763,0.2040813 0.098303,0.3411911 l -0.014396,0.046253 0.020039,0.00747 c 0.073566,0.027434 0.1328443,0.077016 0.1654539,0.138389 0.017365,0.032681 0.019992,0.046519 0.020005,0.1053456 1.33e-5,0.056488 -0.00292,0.073339 -0.017672,0.1015831 -0.037844,0.072446 -0.093555,0.1117716 -0.1678958,0.1185124 -0.041675,0.00378 -0.043812,0.00497 -0.043812,0.02442 0,0.020069 0.00107,0.020537 0.058316,0.025311 0.1188071,0.00991 0.2626347,0.054283 0.3894029,0.1201395 0.2200571,0.1143198 0.4245371,0.350666 0.5105727,0.590139 0.047608,0.1325139 0.06606,0.2431972 0.065662,0.3938593 -0.0014,0.5264438 -0.3788286,0.9829375 -0.8955228,1.0830985 -0.088326,0.017122 -0.2462046,0.023941 -0.3278371,0.014159 z M 5.7233357,7.0840833 C 5.922464,7.0618784 6.1136634,6.9676311 6.2629154,6.8181097 6.3951377,6.6856473 6.4768955,6.5334951 6.5171276,6.345018 6.5382307,6.2461555 6.5396669,6.0803503 6.5202058,5.9897603 6.4571778,5.6963841 6.2798852,5.4674356 6.0157206,5.3382908 5.7328376,5.1999948 5.4183379,5.2134109 5.143817,5.3754853 4.9157938,5.510108 4.7619406,5.7267615 4.7049284,5.9935226 c -0.010049,0.04702 -0.013542,0.09485 -0.013189,0.1805928 4.574e-4,0.1002416 0.00332,0.1280941 0.020683,0.1981889 0.025021,0.1010067 0.055763,0.1789423 0.1012674,0.2567246 0.1151486,0.1968269 0.293762,0.3427867 0.5058298,0.4133563 0.1379641,0.04591 0.2563807,0.058138 0.4038174,0.041698 z m 0.043235,-2.2123185 c 0.034259,-0.040715 0.035363,-0.091941 0.003,-0.1391759 C 5.7120377,4.6486249 5.5130913,4.6279807 5.400026,4.6942409 5.333661,4.7331329 5.314146,4.8235357 5.361456,4.8729165 l 0.021079,0.022002 H 5.5648096 5.747087 Z M 5.6240281,4.4998727 c 0.02728,-0.055443 0.02504,-0.173202 -0.00421,-0.2212984 l -0.015305,-0.025167 -0.020633,0.019768 c -0.025601,0.024528 -0.041664,0.024935 -0.064952,0.00165 -0.020595,-0.020595 -0.026196,-0.017126 -0.044993,0.027863 -0.015289,0.036589 -0.015214,0.1397464 9.15e-5,0.1764607 0.020633,0.049384 0.030492,0.055475 0.085813,0.053017 l 0.049344,-0.00219 z M 5.5165048,3.9129473 c 0.019377,-0.024634 0.046043,-0.024141 0.065991,0.00122 0.015283,0.019427 0.016089,0.019597 0.026788,0.00564 0.016229,-0.021166 0.033796,-0.083919 0.033796,-0.1207279 0,-0.047684 -0.014148,-0.104937 -0.031328,-0.126779 l -0.015164,-0.019277 -0.014924,0.018972 c -0.019048,0.024215 -0.046114,0.024373 -0.064989,3.796e-4 -0.013702,-0.017421 -0.015338,-0.017777 -0.025915,-0.00564 -0.0266,0.030514 -0.031855,0.051212 -0.031945,0.1258209 -9.14e-5,0.066042 0.00215,0.079159 0.018226,0.1072267 0.010074,0.017589 0.019744,0.03198 0.021491,0.03198 0.00175,0 0.00983,-0.00847 0.017972,-0.018812 z"
     id="path33"
     sodipodi:nodetypes="csssssccssccsccssscccsscsccccsscccssccsscsscsscscccsscssscsssccscsscccscscscccccccccsccscccsscc" /><path
     style="fill:#ffffff;stroke-width:0.0284397"
     d="m 5.5770323,5.6206248 c -0.015955,-0.011175 -0.016724,-0.016656 -0.016724,-0.1192288 0,-0.094602 0.00165,-0.1090104 0.013761,-0.1199682 0.018053,-0.016337 0.04107,-0.015805 0.056558,0.00131 0.010341,0.011427 0.012453,0.031649 0.012453,0.1192289 0,0.092619 -0.00168,0.1069852 -0.013761,0.1179211 -0.017175,0.015543 -0.030876,0.015737 -0.052287,7.391e-4 z"
     id="path32" /><path
     style="fill:#ffffff;stroke-width:0.0284397"
     d="m 6.1816323,6.1923932 c -0.01594,-0.01594 -0.014924,-0.043235 0.00218,-0.058719 0.011937,-0.010803 0.028877,-0.012367 0.1144758,-0.010572 0.09977,0.00209 0.100543,0.00225 0.1115807,0.021932 0.00997,0.017779 0.00978,0.021858 -0.00178,0.039505 -0.012844,0.019602 -0.013287,0.019679 -0.1137669,0.019679 -0.081669,0 -0.1031234,-0.00225 -0.1126966,-0.011825 z"
     id="path31" /><path
     style="fill:#ffffff;stroke-width:0.0284397"
     d="m 4.8278176,6.1904532 c -0.016337,-0.018053 -0.015805,-0.041071 0.00131,-0.056558 0.01137,-0.010291 0.031364,-0.012453 0.1151276,-0.012453 0.1109152,0 0.1194264,0.00295 0.1194264,0.041385 0,0.0385 -0.00842,0.041386 -0.1207345,0.041386 -0.089912,0 -0.1042216,-0.00171 -0.1151271,-0.013761 z"
     id="path30" /><path
     style="fill:#ffffff;stroke-width:0.0284397"
     d="M 5.553319,6.2587561 C 5.519257,6.2413871 5.499964,6.2137961 5.494762,6.1750141 5.490272,6.1415461 5.485472,6.1373731 5.1782247,5.9000398 c -0.02184,-0.016871 -0.04174,-0.038543 -0.044222,-0.04816 -0.00999,-0.038719 0.029685,-0.073253 0.065277,-0.056816 0.00784,0.00362 0.088646,0.064998 0.1795766,0.1363981 0.1537302,0.1207105 0.1667213,0.1292899 0.185168,0.1222766 0.028145,-0.010701 0.053707,-0.00936 0.079897,0.00418 l 0.022669,0.011723 0.2209554,-0.1434049 c 0.1373037,-0.089112 0.228084,-0.1434045 0.2397836,-0.1434045 0.032388,0 0.049397,0.025885 0.037457,0.056999 -0.00442,0.011529 -0.1857251,0.1340934 -0.3858203,0.2608249 -0.06381,0.040414 -0.068165,0.04479 -0.068165,0.06849 0,0.050343 -0.055658,0.1027667 -0.1091091,0.1027667 -0.012415,0 -0.034184,-0.00592 -0.048374,-0.013157 z"
     id="path29" /><path
     style="fill:#ffffff;stroke-width:0.0284397"
     d="m 5.5727614,6.9504463 c -0.010267,-0.011346 -0.012453,-0.031242 -0.012453,-0.1133648 0,-0.054783 0.00351,-0.1061545 0.00779,-0.1141589 0.00538,-0.010047 0.015783,-0.014555 0.033596,-0.014555 0.017814,0 0.02822,0.00451 0.033598,0.014555 0.00428,0.008 0.00779,0.059965 0.00779,0.1154665 0,0.088205 -0.00173,0.102479 -0.013761,0.1133653 -0.018052,0.016337 -0.04107,0.015804 -0.056558,-0.00131 z"
     id="path28" /></g><path
   style="fill:#ffffff;stroke-width:0.0284397"
   d="M 1.1886826,7.9077779 C 0.89985502,7.8752117 0.60642711,7.7329798 0.42254748,7.5364123 0.16753576,7.2638046 0.06828562,6.9116555 0.13910149,6.5307194 0.15725297,6.433079 0.19131303,6.3160585 0.24154311,6.1787645 0.26674102,6.1098899 0.29707587,6.0230631 0.3089544,5.9858162 0.38149574,5.7583428 0.36466129,5.5883431 0.2591446,5.4828265 0.24012002,5.4638015 0.19307994,5.4297118 0.15461149,5.4070724 0.07631167,5.3609904 0.04365301,5.3282912 0.01633797,5.268628 2.0693465e-4,5.2333928 -0.00181993,5.2201391 0.00113034,5.1691774 0.00403574,5.1189891 0.00830205,5.1041075 0.03026802,5.0675479 0.12513937,4.9096447 0.34982706,4.8675938 0.55263118,4.9697862 0.79805908,5.0934565 0.95156685,5.3845226 0.9376807,5.6998781 0.93017657,5.8702973 0.89316771,6.0030927 0.782809,6.2555885 0.68174905,6.486809 0.66257547,6.5538614 0.65652349,6.6972254 c -0.006363,0.1507129 0.0197023,0.2615151 0.0890216,0.3784255 0.1240781,0.2092655 0.36033011,0.3471299 0.64707561,0.3775986 l 0.042374,0.00451 -0.00373,0.095509 c -0.00266,0.068138 -3.476e-4,0.1149186 0.00813,0.1632325 0.010874,0.06204 0.04156,0.153303 0.058528,0.1740699 0.00461,0.00564 0.00244,0.010305 -0.00639,0.013772 -0.022191,0.00871 -0.2346794,0.011128 -0.3028449,0.00344 z"
   id="path27" /><path
   style="fill:#ffffff;stroke-width:0.0284397"
   d="M 2.4977624,8.1366902 C 1.9040945,8.1056475 1.6584554,8.0209392 1.5592536,7.8130467 1.5173125,7.7251524 1.5082599,7.6530662 1.5187809,7.4907525 1.526731,7.3681053 1.578877,6.8237864 1.583124,6.8191134 c 9.719e-4,-0.00107 0.026852,0.00963 0.057513,0.023776 0.221854,0.1023532 0.5311939,0.1280689 0.9060357,0.07532 0.1393543,-0.01961 0.3828816,-0.07375 0.4695093,-0.1043771 l 0.033078,-0.011694 0.039029,0.036912 c 0.0705,0.066676 0.1512125,0.095411 0.2516599,0.089597 0.1048947,-0.00607 0.1980558,-0.065331 0.2381777,-0.1515023 0.00995,-0.021373 0.018126,-0.044271 0.018167,-0.050885 2.81e-5,-0.00676 0.013544,-0.0181 0.03081,-0.025886 0.064,-0.02886 0.1122321,-0.1145523 0.1122321,-0.1993989 v -0.044866 l 0.1316819,-0.00113 c 0.072425,-6.197e-4 0.1359142,-0.00147 0.1410877,-0.00188 0.010441,-8.365e-4 0.01107,0.00468 0.035104,0.3077596 0.04855,0.6122358 0.056211,0.8073818 0.034858,0.8879125 -0.068948,0.260033 -0.340187,0.4127126 -0.8280747,0.4661221 -0.2072416,0.022686 -0.5501873,0.032572 -0.7562302,0.021797 z"
   id="path2" /><g
   id="wordmark"
   fill="#ffffff"
   font-family="Comfortaa"
   font-weight="700"
   text-anchor="middle"
   stroke="#ffffff"
   stroke-width="10"
   stroke-linejoin="round"
   paint-order="stroke fill"
   transform="matrix(0.00601719,0,0,0.00601719,6.36785,2.5190063)"><path
     d="m 158.25548,353.3 q -32.01,0 -58.410004,-14.52 -26.07,-14.52 -35.97,-37.95 -1.65,-3.96 -1.65,-6.6 0,-4.95 3.63,-8.58 3.63,-3.96 9.9,-5.28 0.99,-0.33 3.3,-0.33 5.28,0 9.9,3.3 4.95,2.97 7.26,8.25 5.940004,12.87 23.430004,21.78 17.49,8.91 38.61,8.91 24.75,0 41.91,-11.22 17.16,-11.55 17.16,-31.35 0,-18.81 -14.52,-32.01 -14.52,-13.53 -44.22,-16.5 -40.92,-3.96 -64.350004,-23.76 -23.43,-20.13 -23.43,-50.16 0,-21.12 11.88,-36.3 12.21,-15.51 33.000004,-23.43 21.12,-8.25 47.19,-8.25 28.38,0 47.85,11.55 19.47,11.55 33,33 3.96,6.27 3.96,11.88 0,7.26 -6.6,11.88 -3.63,2.31 -8.58,2.31 -4.95,0 -9.24,-2.31 -4.29,-2.64 -6.6,-6.93 -8.91,-14.85 -22.44,-22.44 -13.2,-7.92 -33.66,-7.92 -25.08,0 -40.59,9.9 -15.51,9.57 -15.51,28.05 0,17.16 13.86,28.71 13.86,11.55 49.5,15.18 39.6,3.96 61.38,24.09 21.78,19.8 21.78,52.47 0,23.76 -12.87,40.92 -12.87,16.83 -34.32,25.41 -21.12,8.25 -45.54,8.25 z m 223.73991,-1.98 q -26.07,0 -46.86,-11.88 -20.79,-11.88 -32.67,-32.67 -11.55,-21.12 -11.55,-46.86 0,-26.4 11.22,-47.19 11.55,-21.12 32.01,-32.67 20.46,-11.88 46.2,-11.88 38.94,0 64.68,29.7 3.3,3.63 3.3,8.58 0,7.26 -7.26,12.21 -3.3,2.31 -7.59,2.31 -7.59,0 -12.87,-5.94 -8.25,-8.91 -18.15,-12.87 -9.57,-4.29 -22.11,-4.29 -25.41,0 -41.25,17.16 -15.84,16.83 -15.84,44.88 0,17.82 7.26,32.01 7.59,13.86 20.79,21.78 13.53,7.92 30.69,7.92 22.44,0 36.3,-11.55 6.27,-4.62 12.21,-4.62 4.62,0 8.58,2.97 6.27,5.28 6.27,11.88 0,4.95 -3.96,8.91 -23.76,22.11 -59.4,22.11 z M 588.24535,167.84 q 22.77,0 40.92,9.9 18.15,9.9 28.38,29.04 10.23,18.81 10.23,45.54 v 81.18 q 0,7.26 -4.95,12.21 -4.62,4.62 -11.88,4.62 -7.26,0 -12.21,-4.62 -4.62,-4.95 -4.62,-12.21 v -81.18 q 0,-26.73 -14.52,-40.26 -14.19,-13.86 -37.95,-13.86 -13.86,0 -25.41,5.61 -11.22,5.61 -17.82,15.18 -6.27,9.57 -6.27,21.45 v 93.06 q 0,7.26 -4.62,12.21 -4.62,4.62 -12.21,4.62 -7.26,0 -12.21,-4.62 -4.62,-4.95 -4.62,-12.21 V 109.1 q 0,-7.59 4.62,-12.21 4.95,-4.62 12.21,-4.62 7.59,0 12.21,4.62 4.62,4.62 4.62,12.21 v 80.85 q 10.56,-10.56 25.08,-16.17 14.52,-5.94 31.02,-5.94 z m 297.66014,89.1 q 0,6.27 -4.29,10.56 -4.29,3.96 -10.89,3.96 h -125.4 q 3.63,23.1 20.79,37.29 17.49,14.19 42.57,14.19 9.9,0 20.46,-3.63 10.89,-3.63 17.82,-8.91 4.62,-3.63 10.89,-3.63 6.27,0 9.9,3.3 5.94,4.95 5.94,11.22 0,5.94 -5.28,9.9 -11.22,8.91 -28.05,14.52 -16.5,5.61 -31.68,5.61 -27.06,0 -48.51,-11.55 -21.45,-11.88 -33.66,-32.67 -11.88,-20.79 -11.88,-47.19 0,-26.4 11.22,-47.19 11.55,-21.12 31.68,-32.67 20.46,-11.88 46.2,-11.88 25.41,0 43.89,11.22 18.48,11.22 28.38,31.35 9.9,20.13 9.9,46.2 z m -82.17,-60.39 q -24.09,0 -39.27,13.2 -14.85,13.2 -18.81,35.31 h 109.89 q -2.97,-22.11 -16.5,-35.31 -13.53,-13.2 -35.31,-13.2 z M 1077.9654,92.27 q 7.59,0 12.21,4.62 4.62,4.62 4.62,12.21 v 150.48 q 0,25.74 -12.21,46.86 -11.88,20.79 -32.67,33 -20.46,11.88 -45.87,11.88 -25.40996,0 -46.52996,-11.88 -20.79,-12.21 -32.67,-33 -11.88,-21.12 -11.88,-46.86 0,-25.74 10.89,-46.53 11.22,-21.12 30.36,-33 19.47,-11.88 43.23,-11.88 19.13996,0 35.63996,7.92 16.5,7.92 28.05,22.11 v -89.1 q 0,-7.59 4.62,-12.21 4.95,-4.62 12.21,-4.62 z m -73.92,229.35 q 16.5,0 29.7,-7.92 13.53,-8.25 21.12,-22.44 7.59,-14.19 7.59,-31.68 0,-17.49 -7.59,-31.35 -7.59,-14.19 -21.12,-22.11 -13.2,-8.25 -29.7,-8.25 -16.49996,0 -30.02996,8.25 -13.2,7.92 -21.12,22.11 -7.59,13.86 -7.59,31.35 0,17.49 7.59,31.68 7.92,14.19 21.12,22.44 13.53,7.92 30.02996,7.92 z m 298.9798,-152.46 q 7.59,0 12.21,4.62 4.62,4.62 4.62,12.21 v 147.18 q 0,7.26 -4.62,12.21 -4.62,4.62 -12.21,4.62 -7.26,0 -12.21,-4.62 -4.62,-4.95 -4.62,-12.21 v -3.63 q -10.56,10.56 -25.08,16.5 -14.52,5.61 -31.02,5.61 -22.77,0 -40.92,-9.9 -18.15,-9.9 -28.38,-28.71 -10.23,-19.14 -10.23,-45.87 v -81.18 q 0,-7.26 4.62,-11.88 4.95,-4.95 12.21,-4.95 7.26,0 11.88,4.95 4.95,4.62 4.95,11.88 v 81.18 q 0,26.73 14.19,40.59 14.52,13.53 38.28,13.53 13.86,0 25.08,-5.61 11.55,-5.61 17.82,-15.18 6.6,-9.57 6.6,-21.45 v -93.06 q 0,-7.59 4.62,-12.21 4.95,-4.62 12.21,-4.62 z M 1422.1549,350 q -14.19,0 -25.74,-7.59 -11.22,-7.92 -17.49,-21.78 -6.27,-14.19 -6.27,-31.68 V 108.77 q 0,-7.26 4.62,-11.88 4.62,-4.62 11.88,-4.62 7.26,0 11.88,4.62 4.62,4.62 4.62,11.88 v 180.18 q 0,12.21 4.62,20.13 4.62,7.92 11.88,7.92 h 8.25 q 6.6,0 10.56,4.62 4.29,4.62 4.29,11.88 0,7.26 -6.27,11.88 -6.27,4.62 -16.17,4.62 z m 208.2296,-93.06 q 0,6.27 -4.29,10.56 -4.29,3.96 -10.89,3.96 h -125.4 q 3.63,23.1 20.79,37.29 17.49,14.19 42.57,14.19 9.9,0 20.46,-3.63 10.89,-3.63 17.82,-8.91 4.62,-3.63 10.89,-3.63 6.27,0 9.9,3.3 5.94,4.95 5.94,11.22 0,5.94 -5.28,9.9 -11.22,8.91 -28.05,14.52 -16.5,5.61 -31.68,5.61 -27.06,0 -48.51,-11.55 -21.45,-11.88 -33.66,-32.67 -11.88,-20.79 -11.88,-47.19 0,-26.4 11.22,-47.19 11.55,-21.12 31.68,-32.67 20.46,-11.88 46.2,-11.88 25.41,0 43.89,11.22 18.48,11.22 28.38,31.35 9.9,20.13 9.9,46.2 z m -82.17,-60.39 q -24.09,0 -39.27,13.2 -14.85,13.2 -18.81,35.31 h 109.89 q -2.97,-22.11 -16.5,-35.31 -13.53,-13.2 -35.31,-13.2 z"
     id="text1"
     style="font-size:330px"
     aria-label="Schedule" /><path
     d="m 293.22501,705 q -6.93,0 -12.21,-4.95 -4.95,-4.95 -4.95,-12.21 V 464.43 q 0,-7.26 4.95,-12.21 5.28,-4.95 12.21,-4.95 7.26,0 12.21,4.95 4.95,4.95 4.95,12.21 v 99 l 109.23,-109.23 q 3.96,-3.96 6.93,-5.28 3.3,-1.65 7.26,-1.65 6.93,0 10.56,4.29 3.96,3.96 3.96,9.9 0,8.58 -6.27,14.85 l -84.15,84.48 85.8,116.82 q 3.3,4.62 3.3,10.56 0,6.6 -4.29,11.88 -4.29,4.95 -10.89,4.95 -9.24,0 -14.19,-7.26 l -83.49,-113.19 -23.76,23.76 v 79.53 q 0,7.26 -4.95,12.21 -4.95,4.95 -12.21,4.95 z m 341.88012,-93.06 q 0,6.27 -4.29,10.56 -4.29,3.96 -10.89,3.96 h -125.4 q 3.63,23.1 20.79,37.29 17.49,14.19 42.57,14.19 9.9,0 20.46,-3.63 10.89,-3.63 17.82,-8.91 4.62,-3.63 10.89,-3.63 6.27,0 9.9,3.3 5.94,4.95 5.94,11.22 0,5.94 -5.28,9.9 -11.22,8.91 -28.05,14.52 -16.5,5.61 -31.68,5.61 -27.06,0 -48.51,-11.55 -21.45,-11.88 -33.66,-32.67 -11.88,-20.79 -11.88,-47.19 0,-26.4 11.22,-47.19 11.55,-21.12 31.68,-32.67 20.46,-11.88 46.2,-11.88 25.41,0 43.89,11.22 18.48,11.22 28.38,31.35 9.9,20.13 9.9,46.2 z m -82.17,-60.39 q -24.09,0 -39.27,13.2 -14.85,13.2 -18.81,35.31 h 109.89 q -2.97,-22.11 -16.5,-35.31 -13.53,-13.2 -35.31,-13.2 z m 280.49996,60.39 q 0,6.27 -4.29,10.56 -4.29,3.96 -10.89,3.96 h -125.4 q 3.63,23.1 20.79,37.29 17.49,14.19 42.57,14.19 9.9,0 20.46,-3.63 10.89,-3.63 17.82,-8.91 4.62,-3.63 10.89,-3.63 6.27,0 9.9,3.3 5.94,4.95 5.94,11.22 0,5.94 -5.28,9.9 -11.22,8.91 -28.05,14.52 -16.5,5.61 -31.68,5.61 -27.06,0 -48.51,-11.55 -21.45,-11.88 -33.66,-32.67 -11.88,-20.79 -11.88,-47.19 0,-26.4 11.22,-47.19 11.55,-21.12 31.68,-32.67 20.46,-11.88 46.2,-11.88 25.41,0 43.89,11.22 18.48,11.22 28.38,31.35 9.9,20.13 9.9,46.2 z m -82.17,-60.39 q -24.09,0 -39.27,13.2 -14.85,13.2 -18.81,35.31 h 109.89 q -2.97,-22.11 -16.5,-35.31 -13.53,-13.2 -35.31,-13.2 z M 967.0852,523.17 q 25.41,0 46.2,12.21 21.12,11.88 33,33 11.88,20.79 11.88,46.53 0,25.74 -11.22,46.86 -10.89,20.79 -30.36,32.67 -19.14,11.88 -42.9,11.88 -19.14,0 -35.64,-7.92 -16.5,-7.92 -28.05,-22.11 v 89.1 q 0,7.59 -4.62,12.21 -4.62,4.62 -12.21,4.62 -7.26,0 -12.21,-4.62 -4.62,-4.62 -4.62,-12.21 V 614.91 q 0,-25.74 11.88,-46.53 12.21,-21.12 32.67,-33 20.79,-12.21 46.2,-12.21 z m 0,153.45 q 16.5,0 29.7,-7.92 13.53,-8.25 21.12,-22.11 7.92,-14.19 7.92,-31.68 0,-17.49 -7.92,-31.68 -7.59,-14.19 -21.12,-22.11 -13.2,-8.25 -29.7,-8.25 -16.5,0 -30.03,8.25 -13.2,7.92 -20.79,22.11 -7.59,14.19 -7.59,31.68 0,17.49 7.59,31.68 7.59,13.86 20.79,22.11 13.53,7.92 30.03,7.92 z m 303.2697,-64.68 q 0,6.27 -4.29,10.56 -4.29,3.96 -10.89,3.96 h -125.4 q 3.63,23.1 20.79,37.29 17.49,14.19 42.57,14.19 9.9,0 20.46,-3.63 10.89,-3.63 17.82,-8.91 4.62,-3.63 10.89,-3.63 6.27,0 9.9,3.3 5.94,4.95 5.94,11.22 0,5.94 -5.28,9.9 -11.22,8.91 -28.05,14.52 -16.5,5.61 -31.68,5.61 -27.06,0 -48.51,-11.55 -21.45,-11.88 -33.66,-32.67 -11.88,-20.79 -11.88,-47.19 0,-26.4 11.22,-47.19 11.55,-21.12 31.68,-32.67 20.46,-11.88 46.2,-11.88 25.41,0 43.89,11.22 18.48,11.22 28.38,31.35 9.9,20.13 9.9,46.2 z m -82.17,-60.39 q -24.09,0 -39.27,13.2 -14.85,13.2 -18.81,35.31 h 109.89 q -2.97,-22.11 -16.5,-35.31 -13.53,-13.2 -35.31,-13.2 z m 213.5101,-29.04 q 17.49,0 27.39,5.28 9.9,5.28 9.9,13.2 0,2.31 -0.33,3.3 -2.97,10.56 -13.2,10.56 -1.65,0 -4.95,-0.66 -13.2,-2.31 -21.45,-2.31 -23.76,0 -38.28,10.89 -14.52,10.89 -14.52,29.37 v 96.36 q 0,7.92 -4.29,12.21 -3.96,4.29 -12.21,4.29 -7.92,0 -12.21,-3.96 -4.29,-4.29 -4.29,-12.54 V 540.99 q 0,-7.92 4.29,-12.21 4.29,-4.29 12.21,-4.29 16.5,0 16.5,16.5 v 6.27 q 9.9,-11.55 24.42,-18.15 14.52,-6.6 31.02,-6.6 z"
     id="text2"
     style="font-size:330px"
     aria-label="Keeper" /></g></g>
</svg>
